<?xml version="1.0" encoding="utf-8"?>
<!-- Generator: Adobe Illustrator 25.2.3, SVG Export Plug-In . SVG Version: 6.00 Build 0)  -->
<svg version="1.1" id="Capa_1" xmlns="http://www.w3.org/2000/svg" xmlns:xlink="http://www.w3.org/1999/xlink" x="0px" y="0px"
	 viewBox="0 0 262.89 140.86" style="enable-background:new 0 0 262.89 140.86;" xml:space="preserve">
<style type="text/css">
	.st0{fill:#471C1A;}
</style>
<path class="st0" d="M186.9,107.56c-2.36,6.75-4.99,14.28-7.8,22.34c1.92,0.3,3.74,0.08,4.8,0.88c1.49,1.11,3.2,2.93,3.31,4.55
	c0.08,1.11-2.23,2.99-3.79,3.46c-1.86,0.56-4.01,0.01-6.05,0.08c-3.52,0.13-6.67-1.96-7.56-5.36c-2.66-10.21-5.74-20.31-8.42-30.51
	c-1.64-6.25-4.76-5.8-26.11,1.6c-8.47,2.93-15.62-2.52-20.21-10.23c-0.77-1.3-4.18-0.83-5.52,0.41
	c-8.91,8.25-17.64,16.68-26.74,25.37c2.2,4.39,3.77,10.13,11.54,9.11c1.18-0.15,2.74,2.56,4.12,3.95c-1.54,1.4-2.94,3.79-4.63,4.02
	c-6.66,0.92-12.32,0.06-15.63-7.55c-3.1-7.14-7.86-13.57-11.89-20.32c-14.02,3.33-12.8,3.97-11.79,18.45
	c2.66,1.3,5.4,2.47,7.88,4.06c0.27,0.17-0.88,3.87-1.47,3.9c-3.76,0.17-8.11,0.84-11.13-0.78c-2.27-1.21-3.51-5.51-3.97-8.61
	c-0.61-4.11-0.02-8.39,0.07-13.52c-10.98,6.33-21.69,9.91-33.41,9.31c-6.21-0.32-11.45-5.67-11.06-11.87
	c0.36-5.74,4.48-9.68,11.03-9.54c14.41,0.32,23.06-7.1,27.86-19.96c2.31-6.19,4.45-12.44,6.52-18.71
	c8.65-26.2,28.03-37.9,54.3-40.71c23.46-2.51,46.3,0.75,69.21,5.53c8.97,1.87,18.51,1.23,27.79,1.23c1.94,0,4.03-2.04,5.78-3.46
	c7.87-6.36,15.62-12.88,23.49-19.25c1.22-0.98,2.77-1.63,4.25-2.2c4.87-1.86,7.27-0.37,7.02,4.9c-0.18,3.77,1.03,5.57,4.53,7.2
	c7.37,3.42,13.5,8.23,13.41,17.61c-0.01,1.2,0.3,2.73,1.06,3.54c4.62,4.87,1.94,9.39-0.22,14.15c-2.25,4.95-6.13,6.99-11.01,9.15
	c-6.24,2.77-12.57,5.93-16.99,12.14c-6.17,8.67-13.43,16.57-20.75,25.45c-0.33-1.07-0.33-0.57-0.11-0.43
	c11.69,7.54,14.24,20.44,18.59,32.19c0.53,1.44-1.33,3.77-2.09,5.68c-1.85-0.89-4.62-1.3-5.38-2.76c-2.14-4.08-3.31-8.66-5.15-12.91
	c-0.62-1.44-1.91-3.13-3.27-3.61C203.54,112.77,195.65,110.36,186.9,107.56z M66.3,87.75c-2.99,5.11-5.67,9.7-9.12,15.58
	c5.57-2.48,9.83-4.38,14.33-6.39C69.6,93.57,68.05,90.84,66.3,87.75z"/>
</svg>
