<svg id="Capa_1" data-name="Capa 1" xmlns="http://www.w3.org/2000/svg" viewBox="0 0 258.81 136.58"><defs><style>.cls-1{fill:#f8e6e4;}</style></defs><path class="cls-1" d="M186.9,107.56c-2.36,6.75-5,14.28-7.8,22.34,1.92.3,3.74.08,4.8.88,1.49,1.11,3.2,2.93,3.31,4.55.08,1.11-2.23,3-3.79,3.46-1.86.56-4,0-6,.08a7.33,7.33,0,0,1-7.56-5.36c-2.66-10.21-5.74-20.31-8.42-30.51-1.64-6.25-4.76-5.8-26.11,1.6-8.47,2.93-15.62-2.52-20.21-10.23-.77-1.3-4.18-.83-5.52.41-8.91,8.25-17.64,16.68-26.74,25.37,2.2,4.39,3.77,10.13,11.54,9.11,1.18-.15,2.74,2.56,4.12,4-1.54,1.4-2.94,3.79-4.63,4-6.66.92-12.32.06-15.63-7.55-3.1-7.14-7.86-13.57-11.89-20.32-14,3.33-12.8,4-11.79,18.45a77,77,0,0,1,7.88,4.06c.27.17-.88,3.87-1.47,3.9-3.76.17-8.11.84-11.13-.78-2.27-1.21-3.51-5.51-4-8.61-.61-4.11,0-8.39.07-13.52-11,6.33-21.69,9.91-33.41,9.31-6.21-.32-11.45-5.67-11.06-11.87.36-5.74,4.48-9.68,11-9.54,14.41.32,23.06-7.1,27.86-20,2.31-6.19,4.45-12.44,6.52-18.71,8.65-26.2,28-37.9,54.3-40.71,23.46-2.51,46.3.75,69.21,5.53,9,1.87,18.51,1.23,27.79,1.23,1.94,0,4-2,5.78-3.46,7.87-6.36,15.62-12.88,23.49-19.25a15.88,15.88,0,0,1,4.25-2.2c4.87-1.86,7.27-.37,7,4.9-.18,3.77,1,5.57,4.53,7.2,7.37,3.42,13.5,8.23,13.41,17.61a5.51,5.51,0,0,0,1.06,3.54c4.62,4.87,1.94,9.39-.22,14.15-2.25,4.95-6.13,7-11,9.15-6.24,2.77-12.57,5.93-17,12.14C223.3,80.59,216,88.49,208.72,97.37c-.33-1.07-.33-.57-.11-.43,11.69,7.54,14.24,20.44,18.59,32.19.53,1.44-1.33,3.77-2.09,5.68-1.85-.89-4.62-1.3-5.38-2.76-2.14-4.08-3.31-8.66-5.15-12.91a6.85,6.85,0,0,0-3.27-3.61C203.54,112.77,195.65,110.36,186.9,107.56ZM66.3,87.75c-3,5.11-5.67,9.7-9.12,15.58l14.33-6.39Z" transform="translate(-1.42 -2.46)"/></svg>