<?xml version="1.0" encoding="utf-8"?>
<!-- Generator: Adobe Illustrator 25.2.3, SVG Export Plug-In . SVG Version: 6.00 Build 0)  -->
<svg version="1.1" id="Capa_1" xmlns="http://www.w3.org/2000/svg" xmlns:xlink="http://www.w3.org/1999/xlink" x="0px" y="0px"
	 viewBox="0 0 341.67 142.84" style="enable-background:new 0 0 341.67 142.84;" xml:space="preserve">
<style type="text/css">
	.st0{fill:none;}
	.st1{fill:#471C1A;}
</style>
<g>
	<rect x="5.17" y="2.09" class="st0" width="303.5" height="88.75"/>
	<path class="st1" d="M33.14,25.18c-0.25,3.44-1.52,6.15-3.81,8.13c-2.29,1.98-5.31,2.97-9.06,2.97c-4.1,0-7.33-1.38-9.68-4.14
		c-2.35-2.76-3.53-6.55-3.53-11.37v-1.96c0-3.08,0.54-5.79,1.63-8.13s2.63-4.14,4.65-5.39c2.01-1.25,4.35-1.88,7.02-1.88
		c3.69,0,6.67,0.99,8.92,2.97c2.26,1.98,3.56,4.75,3.91,8.33h-6.59c-0.16-2.07-0.74-3.56-1.73-4.49c-0.99-0.93-2.49-1.4-4.52-1.4
		c-2.2,0-3.84,0.79-4.93,2.36c-1.09,1.57-1.65,4.02-1.68,7.33v2.42c0,3.46,0.52,5.98,1.57,7.58c1.05,1.6,2.7,2.4,4.95,2.4
		c2.04,0,3.56-0.47,4.56-1.4c1-0.93,1.58-2.37,1.73-4.32H33.14z"/>
	<path class="st1" d="M50.25,24.12H45v11.71h-6.59V3.84H50.3c3.78,0,6.69,0.84,8.75,2.53s3.08,4.06,3.08,7.14
		c0,2.18-0.47,4-1.42,5.46c-0.94,1.46-2.38,2.62-4.3,3.48l6.92,13.07v0.31h-7.08L50.25,24.12z M45,18.78h5.32
		c1.66,0,2.94-0.42,3.85-1.26c0.91-0.84,1.36-2,1.36-3.48c0-1.51-0.43-2.7-1.29-3.56c-0.86-0.86-2.17-1.3-3.94-1.3H45V18.78z"/>
	<path class="st1" d="M75.08,35.84h-6.59V3.84h6.59V35.84z"/>
	<path class="st1" d="M100.59,29.24H89.04l-2.2,6.59h-7.01L91.74,3.84h6.11l11.98,31.99h-7.01L100.59,29.24z M90.82,23.9h8
		l-4.02-11.97L90.82,23.9z"/>
	<path class="st1" d="M113.76,35.84V3.84h9.84c2.81,0,5.33,0.63,7.55,1.9c2.22,1.27,3.95,3.07,5.2,5.41
		c1.25,2.34,1.87,4.99,1.87,7.97v1.47c0,2.97-0.61,5.62-1.83,7.93c-1.22,2.31-2.95,4.11-5.17,5.38s-4.74,1.92-7.54,1.93H113.76z
		 M120.35,9.18v21.36h3.19c2.58,0,4.55-0.84,5.91-2.53s2.06-4.09,2.09-7.23v-1.69c0-3.25-0.67-5.72-2.02-7.39
		c-1.35-1.68-3.32-2.52-5.91-2.52H120.35z"/>
	<path class="st1" d="M163.19,21.97h-12.66v8.57h14.85v5.29h-21.45V3.84h21.4v5.34h-14.81v7.62h12.66V21.97z"/>
	<path class="st1" d="M182.05,24.12h-5.25v11.71h-6.59V3.84h11.89c3.78,0,6.69,0.84,8.75,2.53s3.08,4.06,3.08,7.14
		c0,2.18-0.47,4-1.42,5.46c-0.94,1.46-2.38,2.62-4.3,3.48l6.92,13.07v0.31h-7.08L182.05,24.12z M176.8,18.78h5.32
		c1.66,0,2.94-0.42,3.85-1.26c0.91-0.84,1.36-2,1.36-3.48c0-1.51-0.43-2.7-1.29-3.56c-0.86-0.86-2.17-1.3-3.94-1.3h-5.3V18.78z"/>
	<path class="st1" d="M226.15,20.56c0,3.15-0.56,5.91-1.67,8.28s-2.71,4.2-4.78,5.49s-4.45,1.93-7.13,1.93
		c-2.65,0-5.02-0.64-7.1-1.91c-2.08-1.27-3.69-3.09-4.83-5.46c-1.14-2.37-1.72-5.09-1.74-8.16v-1.58c0-3.15,0.57-5.92,1.7-8.32
		c1.13-2.39,2.74-4.23,4.81-5.51c2.07-1.28,4.44-1.92,7.11-1.92s5.04,0.64,7.11,1.92c2.07,1.28,3.68,3.12,4.81,5.51
		c1.14,2.4,1.7,5.16,1.7,8.29V20.56z M219.47,19.12c0-3.35-0.6-5.9-1.8-7.65s-2.92-2.62-5.14-2.62c-2.21,0-3.92,0.86-5.12,2.58
		c-1.2,1.72-1.81,4.24-1.82,7.57v1.56c0,3.27,0.6,5.8,1.8,7.6c1.2,1.8,2.93,2.7,5.19,2.7c2.21,0,3.91-0.87,5.1-2.6
		c1.19-1.74,1.79-4.27,1.8-7.59V19.12z"/>
	<path class="st1" d="M15.8,40.84l6.53,28.17l16.35-28.17h3.63l-5.56,31.99h-2.68l2.44-14.04l2.61-13.84L22.83,72.84h-2.07
		l-6.64-28.1l-2.26,14.2L9.45,72.84H6.77l5.56-31.99H15.8z"/>
	<path class="st1" d="M57.96,63.85H43.94l-4.77,8.99h-2.92l17.29-31.99h2.57l6.17,31.99h-2.66L57.96,63.85z M45.15,61.56h12.37
		l-3.16-17.34L45.15,61.56z"/>
	<path class="st1" d="M80.86,64.83c0.34-2.76-1.14-4.78-4.42-6.07l-4.2-1.52l-1.36-0.55c-4.16-1.77-6.09-4.39-5.78-7.84
		c0.13-1.7,0.73-3.19,1.8-4.48s2.48-2.28,4.23-2.98c1.75-0.7,3.61-1.02,5.57-0.98c1.89,0.04,3.58,0.48,5.06,1.31
		c1.49,0.83,2.6,1.96,3.34,3.39c0.74,1.44,1.03,3.05,0.87,4.86h-2.7c0.21-2.17-0.3-3.92-1.53-5.22s-2.95-1.99-5.17-2.05
		c-2.31-0.03-4.3,0.5-5.94,1.6c-1.65,1.09-2.59,2.59-2.82,4.48c-0.19,1.51,0.25,2.8,1.33,3.86c1.08,1.06,2.95,1.99,5.61,2.78
		c3.4,1.08,5.76,2.38,7.09,3.89s1.9,3.33,1.73,5.45c-0.16,1.76-0.78,3.29-1.85,4.58c-1.07,1.3-2.5,2.29-4.28,2.98
		s-3.71,1.01-5.76,0.97c-2.04-0.01-3.87-0.43-5.5-1.25c-1.63-0.82-2.86-1.95-3.67-3.37c-0.81-1.43-1.14-3.08-0.98-4.96h2.68
		c-0.22,2.23,0.38,4.01,1.79,5.32c1.41,1.32,3.35,1.99,5.81,2.02s4.53-0.53,6.21-1.67C79.69,68.22,80.64,66.71,80.86,64.83z"/>
	<path class="st1" d="M106.47,62.86c-0.75,3.3-2.26,5.88-4.55,7.75c-2.29,1.87-5.08,2.76-8.37,2.67c-2.86-0.06-5.13-1.07-6.82-3.04
		c-1.69-1.97-2.6-4.62-2.74-7.96c-0.04-1.14,0.01-2.28,0.15-3.41l0.59-3.87c0.45-2.94,1.37-5.55,2.74-7.82
		c1.37-2.27,3.04-3.98,5-5.12s4.12-1.69,6.48-1.65c3.05,0.06,5.43,1.03,7.14,2.9s2.56,4.4,2.53,7.58l-2.66-0.02
		c0-2.56-0.62-4.55-1.85-5.97c-1.23-1.41-3-2.15-5.3-2.21c-2.9-0.07-5.37,1.01-7.42,3.24c-2.04,2.23-3.37,5.32-3.99,9.26l-0.66,4.39
		l-0.09,1.98c-0.03,1.73,0.22,3.33,0.76,4.81c0.53,1.48,1.34,2.61,2.41,3.38s2.35,1.19,3.85,1.23c2.55,0.09,4.68-0.55,6.39-1.92
		c1.71-1.37,2.97-3.43,3.78-6.18L106.47,62.86z"/>
	<path class="st1" d="M117.27,73.28c-2.99-0.06-5.36-1.09-7.11-3.11c-1.75-2.01-2.7-4.71-2.85-8.07c-0.06-1.17-0.01-2.34,0.15-3.49
		l0.44-3.03c0.66-4.47,2.27-8.12,4.83-10.94c2.62-2.89,5.86-4.29,9.71-4.22c1.96,0.04,3.68,0.52,5.15,1.44
		c1.47,0.92,2.62,2.25,3.44,4c0.82,1.75,1.27,3.67,1.34,5.77c0.04,1.26-0.02,2.49-0.2,3.69l-0.51,3.38
		c-0.51,3.02-1.46,5.65-2.85,7.91c-1.38,2.26-3.07,3.94-5.04,5.06C121.82,72.78,119.64,73.32,117.27,73.28z M129.55,55.06
		c0.12-0.92,0.18-1.86,0.2-2.81c0-1.79-0.28-3.41-0.83-4.88c-0.56-1.46-1.4-2.59-2.52-3.37c-1.12-0.78-2.48-1.2-4.08-1.24
		c-2.93-0.07-5.43,0.98-7.49,3.15c-2.07,2.18-3.43,5.12-4.09,8.82c-0.53,3-0.78,5.22-0.77,6.66c0,2.96,0.65,5.27,1.94,6.94
		c1.3,1.67,3.12,2.53,5.48,2.59c3.12,0.07,5.7-1.05,7.75-3.38c2.04-2.33,3.35-5.41,3.92-9.23L129.55,55.06z"/>
	<path class="st1" d="M156.44,43.13h-10.61l-5.16,29.71h-2.68l5.16-29.71h-10.63l0.42-2.29h23.93L156.44,43.13z"/>
	<path class="st1" d="M154.53,72.84h-2.68l5.56-31.99h2.68L154.53,72.84z"/>
	<path class="st1" d="M181.61,62.86c-0.75,3.3-2.26,5.88-4.55,7.75c-2.29,1.87-5.08,2.76-8.37,2.67c-2.86-0.06-5.13-1.07-6.82-3.04
		c-1.69-1.97-2.6-4.62-2.74-7.96c-0.04-1.14,0.01-2.28,0.15-3.41l0.59-3.87c0.45-2.94,1.37-5.55,2.74-7.82
		c1.37-2.27,3.04-3.98,5-5.12s4.12-1.69,6.48-1.65c3.05,0.06,5.43,1.03,7.14,2.9s2.56,4.4,2.53,7.58l-2.66-0.02
		c0-2.56-0.62-4.55-1.85-5.97c-1.23-1.41-3-2.15-5.3-2.21c-2.9-0.07-5.37,1.01-7.42,3.24c-2.04,2.23-3.37,5.32-3.99,9.26l-0.66,4.39
		l-0.09,1.98c-0.03,1.73,0.22,3.33,0.76,4.81c0.53,1.48,1.34,2.61,2.41,3.38s2.35,1.19,3.85,1.23c2.55,0.09,4.68-0.55,6.39-1.92
		c1.71-1.37,2.97-3.43,3.78-6.18L181.61,62.86z"/>
	<path class="st1" d="M199.71,63.85h-14.02l-4.77,8.99H178l17.29-31.99h2.57l6.17,31.99h-2.66L199.71,63.85z M186.9,61.56h12.37
		l-3.16-17.34L186.9,61.56z"/>
	<path class="st1" d="M222.61,64.83c0.34-2.76-1.14-4.78-4.42-6.07l-4.2-1.52l-1.36-0.55c-4.16-1.77-6.09-4.39-5.78-7.84
		c0.13-1.7,0.73-3.19,1.8-4.48s2.48-2.28,4.23-2.98c1.75-0.7,3.61-1.02,5.57-0.98c1.89,0.04,3.58,0.48,5.06,1.31
		c1.49,0.83,2.6,1.96,3.34,3.39c0.74,1.44,1.03,3.05,0.87,4.86h-2.7c0.21-2.17-0.3-3.92-1.53-5.22s-2.95-1.99-5.17-2.05
		c-2.31-0.03-4.3,0.5-5.94,1.6c-1.65,1.09-2.59,2.59-2.82,4.48c-0.19,1.51,0.25,2.8,1.33,3.86c1.08,1.06,2.95,1.99,5.61,2.78
		c3.4,1.08,5.76,2.38,7.09,3.89s1.9,3.33,1.73,5.45c-0.16,1.76-0.78,3.29-1.85,4.58c-1.07,1.3-2.5,2.29-4.28,2.98
		s-3.71,1.01-5.76,0.97c-2.04-0.01-3.87-0.43-5.5-1.25c-1.63-0.82-2.86-1.95-3.67-3.37c-0.81-1.43-1.14-3.08-0.98-4.96h2.68
		c-0.22,2.23,0.38,4.01,1.79,5.32c1.41,1.32,3.35,1.99,5.81,2.02s4.53-0.53,6.21-1.67C221.45,68.22,222.4,66.71,222.61,64.83z"/>
</g>
<g>
	<rect y="73.67" class="st0" width="341.67" height="69.17"/>
	<path class="st1" d="M52.68,119.29c-0.77,6.54-3.18,11.59-7.24,15.14c-4.06,3.55-9.46,5.33-16.21,5.33
		c-7.31,0-13.16-2.62-17.57-7.86c-4.4-5.24-6.61-12.25-6.61-21.03v-5.95c0-5.75,1.03-10.8,3.08-15.17
		c2.05-4.36,4.96-7.71,8.73-10.05c3.77-2.34,8.13-3.5,13.08-3.5c6.57,0,11.84,1.83,15.8,5.5c3.96,3.67,6.27,8.74,6.92,15.23h-8.2
		c-0.71-4.94-2.24-8.52-4.61-10.74c-2.37-2.22-5.67-3.32-9.92-3.32c-5.21,0-9.3,1.93-12.26,5.78c-2.96,3.86-4.44,9.34-4.44,16.45v6
		c0,6.72,1.4,12.06,4.21,16.03c2.8,3.97,6.73,5.95,11.77,5.95c4.53,0,8.01-1.03,10.43-3.08c2.42-2.05,4.03-5.63,4.82-10.73H52.68z"
		/>
	<path class="st1" d="M88.56,122.73H62.65l-5.82,16.19h-8.41l23.62-61.85h7.14l23.66,61.85h-8.37L88.56,122.73z M65.11,116.06h21.03
		L75.61,87.14L65.11,116.06z"/>
	<path class="st1" d="M149.3,138.92h-8.2l-31.14-47.66v47.66h-8.2V77.07h8.2l31.22,47.88V77.07h8.11V138.92z"/>
	<path class="st1" d="M151.5,122.31c0-2.97,0.83-5.71,2.48-8.2c1.66-2.49,4.82-5.39,9.49-8.71c-2.75-3.34-4.59-6.03-5.52-8.07
		c-0.94-2.04-1.4-4.06-1.4-6.08c0-4.7,1.39-8.38,4.16-11.04s6.54-3.99,11.3-3.99c4.25,0,7.76,1.24,10.54,3.72
		c2.78,2.48,4.16,5.6,4.16,9.37c0,2.49-0.63,4.79-1.89,6.9s-3.46,4.33-6.61,6.65l-4.55,3.36l13.76,16.44
		c1.93-3.68,2.89-7.77,2.89-12.28h7.09c0,7.22-1.74,13.21-5.23,17.97l8.84,10.58h-9.43l-4.12-4.88c-2.1,1.87-4.55,3.29-7.37,4.27
		c-2.82,0.98-5.69,1.47-8.6,1.47c-6.03,0-10.88-1.6-14.53-4.8C153.33,131.77,151.5,127.55,151.5,122.31z M171.51,133.35
		c4.16,0,7.97-1.59,11.43-4.76l-15.08-18.05l-1.4,1.02c-4.73,3.48-7.09,7.07-7.09,10.75c0,3.34,1.08,6.02,3.25,8.03
		C164.78,132.35,167.75,133.35,171.51,133.35z M164.42,91c0,2.72,1.67,6.12,5.01,10.2l5.01-3.53c1.92-1.36,3.24-2.66,3.95-3.89
		c0.71-1.23,1.06-2.73,1.06-4.48c0-1.9-0.71-3.48-2.12-4.74c-1.42-1.26-3.2-1.89-5.35-1.89c-2.32,0-4.16,0.79-5.52,2.36
		C165.1,86.6,164.42,88.59,164.42,91z"/>
	<path class="st1" d="M244.57,119.29c-0.76,6.54-3.18,11.59-7.24,15.14s-9.47,5.33-16.21,5.33c-7.31,0-13.16-2.62-17.57-7.86
		c-4.4-5.24-6.61-12.25-6.61-21.03v-5.95c0-5.75,1.03-10.8,3.08-15.17c2.05-4.36,4.96-7.71,8.73-10.05c3.77-2.34,8.13-3.5,13.08-3.5
		c6.57,0,11.84,1.83,15.8,5.5c3.96,3.67,6.27,8.74,6.92,15.23h-8.2c-0.71-4.94-2.24-8.52-4.61-10.74c-2.37-2.22-5.67-3.32-9.92-3.32
		c-5.21,0-9.3,1.93-12.26,5.78c-2.96,3.86-4.44,9.34-4.44,16.45v6c0,6.72,1.4,12.06,4.21,16.03c2.8,3.97,6.73,5.95,11.77,5.95
		c4.53,0,8.01-1.03,10.43-3.08c2.42-2.05,4.03-5.63,4.82-10.73H244.57z"/>
	<path class="st1" d="M280.46,122.73h-25.91l-5.82,16.19h-8.41l23.62-61.85h7.14l23.66,61.85h-8.37L280.46,122.73z M257.01,116.06
		h21.03L267.5,87.14L257.01,116.06z"/>
	<path class="st1" d="M330.92,83.74h-19.88v55.18h-8.11V83.74h-19.84v-6.67h47.83V83.74z"/>
</g>
<g>
</g>
<g>
</g>
<g>
</g>
<g>
</g>
<g>
</g>
<g>
</g>
</svg>
