<?xml version="1.0" encoding="utf-8"?>
<!-- Generator: Adobe Illustrator 25.2.3, SVG Export Plug-In . SVG Version: 6.00 Build 0)  -->
<svg version="1.1" id="Capa_1" xmlns="http://www.w3.org/2000/svg" xmlns:xlink="http://www.w3.org/1999/xlink" x="0px" y="0px"
	 viewBox="0 0 400.49 381.58" style="enable-background:new 0 0 400.49 381.58;" xml:space="preserve">
<style type="text/css">
	.st0{fill:#471C1A;}
</style>
<path class="st0" d="M45.43,266.46c-9.04,11.23-20.21,19.22-34.15,22.57c-2.83,0.68-6.42-1.82-9.66-2.85
	c1.83-2.84,3.12-7.53,5.58-8.25c26.46-7.75,34.51-27.44,34.98-52.31c0.15-7.69,0.41-15.41-0.04-23.08
	c-1.5-26,16.89-36.81,33.99-40.52c4.41-0.96,9.02-2.51,12.7-5.01c12.74-8.67,27-11.9,41.96-12.81c22.2-1.34,44.4-3.1,66.62-3.42
	c20.2-0.29,38.68-6.65,57.6-12.34c9.79-2.94,13.83-7.97,18.04-17.42c7.37-16.57,17.83-31.75,27.29-47.4c2.7-4.46,5.1-9.1,7.25-13.86
	c6.83-15.08,13.21-30.38,20.37-45.31c0.99-2.06,4.73-3.92,7.11-3.82c1.88,0.08,4.74,3.04,5.24,5.18c2.27,9.57,4.33,19.25,5.47,29
	c0.54,4.57,0.97,7.75,6.12,8.83c7.55,1.57,11.2,6.65,13.21,14.04c1.11,4.06,4.16,8.07,7.36,10.97c6.08,5.51,12.8,10.36,19.45,15.22
	c5.64,4.13,6.44,7.87,1.62,14.25c-7.65,10.12-20.97,15.09-33.18,11.66c-4.21-1.18-8.87-1.06-12.84-2.71
	c-7.86-3.26-11.4,0.26-12.63,7.28c-3.07,17.52-6.63,35.02-8.44,52.69c-1.86,18.14-6.25,34.31-17.98,49.2
	c-15.31,19.43-21.34,43.4-23.15,67.6c-1.42,18.99,0.67,38.24,1.23,57.37c0.18,6.2,1.96,10.44,9.28,11.99
	c3.98,0.84,8.5,4.69,10.41,8.4c2.34,4.54,3.31,10.53,2.51,15.52c-0.26,1.61-7.93,2.47-12.28,2.87c-5.18,0.48-10.43,0.16-15.66,0.1
	c-12.09-0.13-17.89-5.89-20.76-17.87c-5.14-21.47-7.18-42.87-5.1-65.02c1.6-17.1,0.33-34.46,0.33-51.92
	c-37.11-3.83-70.64-14.89-104.15-26.07c-12.94-4.32-23.9-0.53-32.64,9.37c-3.57,4.05-6.57,8.87-8.8,13.81
	c-9.85,21.8-24.19,39.74-43.16,54.46c-14.46,11.22-24.08,27.25-28.15,45.09c-1.35,5.91-3.3,11.77,3.83,15.59
	c2.39,1.28,4.06,4.42,5.4,7.06c6.09,11.98,3.88,15.47-9.52,15.48c-3.57,0-7.15,0.1-10.72-0.03c-11.88-0.4-20.66-10.17-19.29-21.86
	c1.95-16.62,3.96-33.24,6.58-49.76c0.52-3.31,3.35-6.81,6.06-9.11C31.49,290.22,40.13,279.69,45.43,266.46z M54.34,234.67
	c3.2-17,6.84-36.3,10.34-54.9c-6.36,2.82-9.76,9.9-10.16,17.93C53.87,210.8,54.34,223.96,54.34,234.67z"/>
<path class="st0" d="M73.88,174.46c-3.82,18.54-7.79,37.77-11.29,54.71"/>
</svg>
