<?xml version="1.0" encoding="utf-8"?>
<!-- Generator: Adobe Illustrator 25.2.3, SVG Export Plug-In . SVG Version: 6.00 Build 0)  -->
<svg version="1.1" id="Capa_1" xmlns="http://www.w3.org/2000/svg" xmlns:xlink="http://www.w3.org/1999/xlink" x="0px" y="0px"
	 viewBox="0 0 400.5 381.6" style="enable-background:new 0 0 400.5 381.6;" xml:space="preserve">
<style type="text/css">
	.st0{fill:#F8E6E4;}
</style>
<path class="st0" d="M45.4,266.5c-9,11.2-20.2,19.2-34.2,22.6c-2.8,0.7-6.4-1.8-9.7-2.9c1.8-2.8,3.1-7.5,5.6-8.2
	c26.5-7.8,34.5-27.4,35-52.3c0.2-7.7,0.4-15.4,0-23.1c-1.5-26,16.9-36.8,34-40.5c4.4-1,9-2.5,12.7-5c12.7-8.7,27-11.9,42-12.8
	c22.2-1.3,44.4-3.1,66.6-3.4c20.2-0.3,38.7-6.6,57.6-12.3c9.8-2.9,13.8-8,18-17.4c7.4-16.6,17.8-31.8,27.3-47.4
	c2.7-4.5,5.1-9.1,7.2-13.9c6.8-15.1,13.2-30.4,20.4-45.3c1-2.1,4.7-3.9,7.1-3.8c1.9,0.1,4.7,3,5.2,5.2c2.3,9.6,4.3,19.2,5.5,29
	c0.5,4.6,1,7.8,6.1,8.8c7.5,1.6,11.2,6.7,13.2,14c1.1,4.1,4.2,8.1,7.4,11c6.1,5.5,12.8,10.4,19.5,15.2c5.6,4.1,6.4,7.9,1.6,14.2
	c-7.6,10.1-21,15.1-33.2,11.7c-4.2-1.2-8.9-1.1-12.8-2.7c-7.9-3.3-11.4,0.3-12.6,7.3c-3.1,17.5-6.6,35-8.4,52.7
	c-1.9,18.1-6.2,34.3-18,49.2c-15.3,19.4-21.3,43.4-23.1,67.6c-1.4,19,0.7,38.2,1.2,57.4c0.2,6.2,2,10.4,9.3,12
	c4,0.8,8.5,4.7,10.4,8.4c2.3,4.5,3.3,10.5,2.5,15.5c-0.3,1.6-7.9,2.5-12.3,2.9c-5.2,0.5-10.4,0.2-15.7,0.1
	c-12.1-0.1-17.9-5.9-20.8-17.9c-5.1-21.5-7.2-42.9-5.1-65c1.6-17.1,0.3-34.5,0.3-51.9c-37.1-3.8-70.6-14.9-104.2-26.1
	c-12.9-4.3-23.9-0.5-32.6,9.4c-3.6,4.1-6.6,8.9-8.8,13.8c-9.8,21.8-24.2,39.7-43.2,54.5c-14.5,11.2-24.1,27.2-28.2,45.1
	c-1.3,5.9-3.3,11.8,3.8,15.6c2.4,1.3,4.1,4.4,5.4,7.1c6.1,12,3.9,15.5-9.5,15.5c-3.6,0-7.1,0.1-10.7,0
	c-11.9-0.4-20.7-10.2-19.3-21.9c1.9-16.6,4-33.2,6.6-49.8c0.5-3.3,3.4-6.8,6.1-9.1C31.5,290.2,40.1,279.7,45.4,266.5z M54.3,234.7
	c3.2-17,6.8-36.3,10.3-54.9c-6.4,2.8-9.8,9.9-10.2,17.9C53.9,210.8,54.3,224,54.3,234.7z"/>
<path class="st0" d="M73.9,174.5c-3.8,18.5-7.8,37.8-11.3,54.7"/>
</svg>
