<?xml version="1.0" encoding="utf-8"?>
<!-- Generator: Adobe Illustrator 25.2.3, SVG Export Plug-In . SVG Version: 6.00 Build 0)  -->
<svg version="1.1" id="Capa_1" xmlns="http://www.w3.org/2000/svg" xmlns:xlink="http://www.w3.org/1999/xlink" x="0px" y="0px"
	 viewBox="0 0 223.1 190.5" style="enable-background:new 0 0 223.1 190.5;" xml:space="preserve">
<style type="text/css">
	.st0{fill:#F8E6E4;}
</style>
<path class="st0" d="M2.8,117.7C1.1,102.5,9.1,88.9,18,75.6c1.7-2.5,3.1-5,6.6-2.8c19,11.4,34.1,1,47.8-10.1
	c11.8-9.5,23.1-14.5,38.4-9.7c20.6,6.4,30.2-10.3,41.4-22.2c6.6-6.9,12.5-14.3,21.9-17.7c3-1.1,6.8-2.3,8.9,0.2
	c2.3,2.7-1.3,5.2-2.9,7c-6.6,7.6-7.4,16.4-6.7,25.8c0.3,3.5,2,6.3,5.1,7.5c3.5,1.2,4.7-2.2,6.1-4.5c4-7,7.8-14.2,12.1-21
	c1.8-2.9,1.8-9.2,7-7.1c4.5,1.8,9.9,4.5,10.1,11c0,1,0.3,2.2-0.1,3.2c-4.1,9.8-7,18.9,5.6,25.5c3.2,1.7-3.9,10.2-10.3,11.2
	c-4.8,0.7-9.7,1.3-14.6,1.8c-3.6,0.3-5.8,2.1-7.3,5.2c-1,2-2,3.9,0.1,5.7c1.8,1.4,3-0.3,4.6-1.1c10.6-5.7,11.9-4.4,12.8,7.3
	c2.6,35.2-22.9,64.6-50.1,70.3c-19.5,4.1-38.6,3.1-57-3.4c-16.9-6-33.1-6.4-50.5-2.1C12.7,164,2.2,155,2.8,117.7z"/>
<path class="st0" d="M74,14.4c10.1-0.3,19.6,1.9,28.2,7.1c5,3.1,8.9,7.3,7.2,13.8c-1.6,6.3-6.4,7.4-12.3,7
	c-12.3-0.7-20.4,8.4-29.9,13.9c-3.6,2.1-6.8,5-10.2,7.4c-15.4,10.8-37.5,3.8-43.7-14c-1.7-4.9,0.4-8.6,4-12.2
	C31.8,23,53.4,14,74,14.4z"/>
<path class="st0" d="M42.4,184.4c-10.2,3.6-14.8-1.8-17-10.7c-0.5-2.1-2.4-4.7,1.2-6.2c2.3-1,4.6-1.9,7.1-0.9c2.5,1,2.7,3.5,1.9,5.3
	C32.1,179.4,42.6,178.8,42.4,184.4z"/>
<path class="st0" d="M163.4,186c-13.7,2-21-2-24.5-11.7c-0.7-1.9-0.9-3.5,1.5-3.9c2.4-0.4,6.4-0.9,6.6,1.4
	C147.6,180.7,155.1,182,163.4,186z"/>
<path class="st0" d="M203.9,3C196,16.1,188,29.2,180.1,42.3C178.5,26.3,189,14.1,203.9,3z"/>
</svg>
