<?xml version="1.0" encoding="utf-8"?>
<!-- Generator: Adobe Illustrator 25.2.3, SVG Export Plug-In . SVG Version: 6.00 Build 0)  -->
<svg version="1.1" id="Capa_1" xmlns="http://www.w3.org/2000/svg" xmlns:xlink="http://www.w3.org/1999/xlink" x="0px" y="0px"
	 viewBox="0 0 223.11 190.46" style="enable-background:new 0 0 223.11 190.46;" xml:space="preserve">
<style type="text/css">
	.st0{fill:#471C1A;}
</style>
<path class="st0" d="M2.82,117.73C1.07,102.47,9.07,88.88,18.05,75.6c1.68-2.49,3.06-4.96,6.56-2.85
	c19.02,11.44,34.1,0.97,47.84-10.07c11.84-9.52,23.05-14.49,38.45-9.68c20.58,6.43,30.17-10.32,41.43-22.25
	c6.56-6.94,12.53-14.3,21.85-17.7c3.04-1.11,6.8-2.31,8.94,0.2c2.32,2.72-1.31,5.2-2.9,7.03c-6.58,7.58-7.39,16.43-6.66,25.78
	c0.27,3.46,1.98,6.35,5.08,7.45c3.52,1.25,4.74-2.15,6.1-4.52c4.04-7,7.79-14.18,12.07-21.03c1.78-2.85,1.79-9.16,7-7.09
	c4.53,1.81,9.87,4.54,10.09,11.04c0.04,1.05,0.31,2.25-0.07,3.15c-4.09,9.82-7.04,18.94,5.62,25.54c3.17,1.65-3.9,10.23-10.32,11.19
	c-4.84,0.72-9.7,1.34-14.57,1.77c-3.56,0.31-5.79,2.11-7.34,5.18c-1,1.98-2.01,3.94,0.11,5.65c1.79,1.44,3.04-0.26,4.55-1.08
	c10.55-5.73,11.92-4.43,12.77,7.3c2.55,35.23-22.89,64.63-50.05,70.35c-19.5,4.11-38.55,3.05-56.97-3.44
	c-16.9-5.96-33.13-6.39-50.53-2.06C12.67,164.02,2.17,154.99,2.82,117.73z"/>
<path class="st0" d="M74,14.41c10.07-0.32,19.57,1.85,28.16,7.12c4.98,3.06,8.89,7.3,7.19,13.82c-1.63,6.28-6.43,7.38-12.34,7.05
	c-12.34-0.68-20.38,8.42-29.94,13.94c-3.62,2.09-6.75,5-10.19,7.42c-15.36,10.84-37.55,3.8-43.72-13.95
	c-1.7-4.89,0.38-8.61,3.95-12.18C31.82,22.96,53.37,14.02,74,14.41z"/>
<path class="st0" d="M42.4,184.45c-10.2,3.58-14.75-1.8-16.99-10.67c-0.53-2.1-2.38-4.69,1.16-6.24c2.31-1.02,4.62-1.86,7.08-0.89
	c2.54,0.99,2.71,3.54,1.88,5.31C32.06,179.4,42.63,178.75,42.4,184.45z"/>
<path class="st0" d="M163.38,186.01c-13.74,2-20.99-2.04-24.53-11.69c-0.72-1.95-0.85-3.54,1.46-3.95c2.36-0.42,6.42-0.91,6.61,1.35
	C147.64,180.67,155.06,181.98,163.38,186.01z"/>
<path class="st0" d="M203.9,3c-7.93,13.1-15.86,26.2-23.79,39.29C178.51,26.33,189.03,14.05,203.9,3z"/>
</svg>
